<svg width="32" height="32" viewBox="0 0 32 32" fill="none" xmlns="http://www.w3.org/2000/svg">
<rect width="32" height="32" rx="4" fill="#1855BE"/>
<path d="M22.6696 12.7321C22.8363 12.8988 22.9196 13.1012 22.9196 13.3393C22.9196 13.5774 22.8363 13.7798 22.6696 13.9464L16.2054 20.4107L14.9911 21.625C14.8244 21.7917 14.622 21.875 14.3839 21.875C14.1458 21.875 13.9435 21.7917 13.7768 21.625L12.5625 20.4107L9.33036 17.1786C9.16369 17.0119 9.08036 16.8095 9.08036 16.5714C9.08036 16.3333 9.16369 16.131 9.33036 15.9643L10.5446 14.75C10.7113 14.5833 10.9137 14.5 11.1518 14.5C11.3899 14.5 11.5923 14.5833 11.7589 14.75L14.3839 17.3839L20.2411 11.5179C20.4077 11.3512 20.6101 11.2679 20.8482 11.2679C21.0863 11.2679 21.2887 11.3512 21.4554 11.5179L22.6696 12.7321Z" fill="white"/>
</svg>
