<svg width="32" height="32" viewBox="0 0 32 32" fill="none" xmlns="http://www.w3.org/2000/svg">
<rect x="0.5" y="0.5" width="31" height="31" rx="3.5" stroke="#1855BE"/>
<path d="M21.0502 19.4821C21.2169 19.6488 21.3002 19.8512 21.3002 20.0893C21.3002 20.3274 21.2169 20.5298 21.0502 20.6964L19.8359 21.9107C19.6693 22.0774 19.4669 22.1607 19.2288 22.1607C18.9907 22.1607 18.7883 22.0774 18.6217 21.9107L15.9967 19.2857L13.3717 21.9107C13.205 22.0774 13.0026 22.1607 12.7645 22.1607C12.5264 22.1607 12.324 22.0774 12.1574 21.9107L10.9431 20.6964C10.7764 20.5298 10.6931 20.3274 10.6931 20.0893C10.6931 19.8512 10.7764 19.6488 10.9431 19.4821L13.5681 16.8571L10.9431 14.2321C10.7764 14.0655 10.6931 13.8631 10.6931 13.625C10.6931 13.3869 10.7764 13.1845 10.9431 13.0179L12.1574 11.8036C12.324 11.6369 12.5264 11.5536 12.7645 11.5536C13.0026 11.5536 13.205 11.6369 13.3717 11.8036L15.9967 14.4286L18.6217 11.8036C18.7883 11.6369 18.9907 11.5536 19.2288 11.5536C19.4669 11.5536 19.6693 11.6369 19.8359 11.8036L21.0502 13.0179C21.2169 13.1845 21.3002 13.3869 21.3002 13.625C21.3002 13.8631 21.2169 14.0655 21.0502 14.2321L18.4252 16.8571L21.0502 19.4821Z" fill="#1855BE"/>
</svg>
