<svg width="18" height="14" viewBox="0 0 18 14" fill="none" xmlns="http://www.w3.org/2000/svg">
<path d="M5.57478 10.981L6.35826 9.56473C5.77567 9.14286 5.32031 8.61049 4.99219 7.96763C4.66406 7.32478 4.5 6.64509 4.5 5.92857C4.5 5.1183 4.70424 4.36495 5.11272 3.66853C3.57924 4.45201 2.30357 5.63393 1.28571 7.21429C2.40402 8.94196 3.83371 10.1975 5.57478 10.981ZM9.34152 3.69866C9.43527 3.60491 9.48214 3.49107 9.48214 3.35714C9.48214 3.22321 9.43527 3.10938 9.34152 3.01562C9.24777 2.92187 9.13393 2.875 9 2.875C8.16295 2.875 7.44308 3.17634 6.8404 3.77902C6.24442 4.375 5.94643 5.09152 5.94643 5.92857C5.94643 6.0625 5.9933 6.17634 6.08705 6.27009C6.1808 6.36384 6.29464 6.41071 6.42857 6.41071C6.5625 6.41071 6.67634 6.36384 6.77009 6.27009C6.86384 6.17634 6.91071 6.0625 6.91071 5.92857C6.91071 5.35268 7.11496 4.86049 7.52344 4.45201C7.93192 4.04353 8.42411 3.83929 9 3.83929C9.13393 3.83929 9.24777 3.79241 9.34152 3.69866ZM13.1283 1.43862C13.1283 1.48549 13.125 1.51562 13.1183 1.52902C12.4085 2.79464 11.3504 4.69308 9.9442 7.22433C8.53795 9.75558 7.48326 11.6507 6.78013 12.9096L6.28795 13.8036C6.22098 13.9107 6.12723 13.9643 6.0067 13.9643C5.92634 13.9643 5.47768 13.7299 4.66071 13.2612C4.55357 13.1942 4.5 13.1004 4.5 12.9799C4.5 12.8996 4.64732 12.6083 4.94196 12.106C3.98438 11.6708 3.10045 11.0915 2.29018 10.3683C1.48661 9.64509 0.790179 8.82478 0.200893 7.90737C0.0669643 7.69978 0 7.46875 0 7.21429C0 6.95982 0.0669643 6.72879 0.200893 6.52121C1.22545 4.94754 2.49777 3.70536 4.01786 2.79464C5.53795 1.88393 7.19866 1.42857 9 1.42857C9.59598 1.42857 10.1987 1.48549 10.808 1.59933L11.3504 0.624999C11.4174 0.517856 11.5112 0.464285 11.6317 0.464285C11.6652 0.464285 11.7254 0.484375 11.8125 0.524553C11.8996 0.564731 12.0033 0.618303 12.1239 0.685267C12.2444 0.745535 12.3549 0.805803 12.4554 0.866071C12.5558 0.926339 12.6596 0.989955 12.7667 1.05692C12.8806 1.11719 12.9475 1.15402 12.9676 1.16741C13.0748 1.23437 13.1283 1.32478 13.1283 1.43862ZM13.5 5.92857C13.5 6.85937 13.2355 7.70982 12.7065 8.47991C12.1775 9.2433 11.4777 9.79241 10.6071 10.1272L13.4196 5.08482C13.4732 5.38616 13.5 5.66741 13.5 5.92857ZM17.7991 6.52121C17.933 6.74888 18 6.97991 18 7.21429C18 7.44866 17.933 7.67969 17.7991 7.90737C17.5379 8.33594 17.173 8.82143 16.7042 9.36384C15.6998 10.5156 14.5346 11.4096 13.2087 12.0458C11.8895 12.6819 10.4866 13 9 13L9.7433 11.6741C11.1629 11.5536 12.4754 11.0949 13.6808 10.298C14.8929 9.50112 15.904 8.47321 16.7143 7.21429C15.9442 6.01562 15 5.03125 13.8817 4.26116L14.5145 3.13616C15.1507 3.56473 15.76 4.07701 16.3426 4.67299C16.9319 5.26897 17.4174 5.88504 17.7991 6.52121Z" fill="#FF877A"/>
</svg>
