<svg width="18" height="12" viewBox="0 0 18 12" fill="none" xmlns="http://www.w3.org/2000/svg">
<path d="M16.7143 6.21429C15.6964 4.63393 14.4208 3.45201 12.8873 2.66853C13.2958 3.36495 13.5 4.1183 13.5 4.92857C13.5 6.16741 13.058 7.22879 12.1741 8.11272C11.2969 8.98996 10.2388 9.42857 9 9.42857C7.76116 9.42857 6.69978 8.98996 5.81585 8.11272C4.93862 7.22879 4.5 6.16741 4.5 4.92857C4.5 4.1183 4.70424 3.36495 5.11272 2.66853C3.57924 3.45201 2.30357 4.63393 1.28571 6.21429C2.17634 7.58705 3.29129 8.68192 4.63058 9.49888C5.97656 10.3092 7.43304 10.7143 9 10.7143C10.567 10.7143 12.0201 10.3092 13.3594 9.49888C14.7054 8.68192 15.8237 7.58705 16.7143 6.21429ZM9.34152 2.69866C9.43527 2.60491 9.48214 2.49107 9.48214 2.35714C9.48214 2.22321 9.43527 2.10938 9.34152 2.01562C9.24777 1.92187 9.13393 1.875 9 1.875C8.16295 1.875 7.44308 2.17634 6.8404 2.77902C6.24442 3.375 5.94643 4.09152 5.94643 4.92857C5.94643 5.0625 5.9933 5.17634 6.08705 5.27009C6.1808 5.36384 6.29464 5.41071 6.42857 5.41071C6.5625 5.41071 6.67634 5.36384 6.77009 5.27009C6.86384 5.17634 6.91071 5.0625 6.91071 4.92857C6.91071 4.35268 7.11496 3.86049 7.52344 3.45201C7.93192 3.04353 8.42411 2.83929 9 2.83929C9.13393 2.83929 9.24777 2.79241 9.34152 2.69866ZM17.7991 5.52121C17.933 5.75558 18 5.98661 18 6.21429C18 6.44196 17.933 6.67299 17.7991 6.90737C16.8616 8.44754 15.5993 9.68304 14.0123 10.6138C12.4319 11.5379 10.7612 12 9 12C7.23884 12 5.56473 11.5346 3.97768 10.6038C2.39732 9.67299 1.13839 8.44085 0.200893 6.90737C0.0669643 6.67299 0 6.44196 0 6.21429C0 5.98661 0.0669643 5.75558 0.200893 5.52121C1.13839 3.98772 2.39732 2.75558 3.97768 1.82478C5.56473 0.893972 7.23884 0.428571 9 0.428571C10.7612 0.428571 12.4319 0.893972 14.0123 1.82478C15.5993 2.75558 16.8616 3.98772 17.7991 5.52121Z" fill="#FF877A"/>
</svg>
