<svg width="32" height="32" viewBox="0 0 32 32" fill="none" xmlns="http://www.w3.org/2000/svg">
<rect x="0.5" y="0.5" width="31" height="31" rx="3.5" stroke="#1855BE"/>
<path d="M12.3817 22L13.1942 21.1875L11.096 19.0893L10.2835 19.9018V20.8571H11.4263V22H12.3817ZM17.0513 13.7143C17.0513 13.5833 16.9859 13.5179 16.8549 13.5179C16.7954 13.5179 16.7448 13.5387 16.7031 13.5804L11.8638 18.4196C11.8222 18.4613 11.8013 18.5119 11.8013 18.5714C11.8013 18.7024 11.8668 18.7679 11.9978 18.7679C12.0573 18.7679 12.1079 18.747 12.1496 18.7054L16.9888 13.8661C17.0305 13.8244 17.0513 13.7738 17.0513 13.7143ZM16.5692 12L20.2835 15.7143L12.8549 23.1429H9.14062V19.4286L16.5692 12ZM22.6674 12.8571C22.6674 13.1726 22.5573 13.4405 22.3371 13.6607L20.8549 15.1429L17.1406 11.4286L18.6228 9.95536C18.8371 9.72917 19.1049 9.61607 19.4263 9.61607C19.7418 9.61607 20.0126 9.72917 20.2388 9.95536L22.3371 12.0446C22.5573 12.2768 22.6674 12.5476 22.6674 12.8571Z" fill="#1855BE"/>
</svg>
