<svg width="119" height="32" viewBox="0 0 119 32" fill="none" xmlns="http://www.w3.org/2000/svg">
<rect width="68" height="32" rx="4" fill="#1855BE"/>
<path fill-rule="evenodd" clip-rule="evenodd" d="M8.8 13.6C8.8 10.949 10.949 8.8 13.6 8.8H19.36V4H13.6C8.29807 4 4 8.29807 4 13.6V28H8.8L8.8 20.32H19.36V15.52H8.8L8.8 13.6ZM53.92 8.8C56.571 8.8 58.72 10.949 58.72 13.6C58.72 16.251 56.571 18.4 53.92 18.4H52.96V8.8H53.92ZM48.16 8.8L48.16 4H52.96H53.92C59.2219 4 63.52 8.29807 63.52 13.6C63.52 16.4673 62.263 19.0409 60.27 20.8C62.263 22.5591 63.52 25.1327 63.52 28H58.72C58.72 25.349 56.571 23.2 53.92 23.2H52.96V28H48.16L48.16 23.2L48.16 18.4L48.16 8.8ZM40.48 28H45.28V4H40.48L40.48 28ZM32.8 22.24C32.8 19.589 30.651 17.44 28 17.44L27.04 17.44L27.04 28H22.24V4H27.04V12.64L28 12.64C29.7486 12.64 31.388 13.1075 32.8 13.9243V4H37.6V22.24V28H32.8V22.24Z" fill="white"/>
<path d="M81.1523 6.9375V24H77.6484V6.9375H81.1523ZM86.4023 6.9375V9.69141H72.4805V6.9375H86.4023ZM85.6172 17.7891V17.543C85.6172 16.6133 85.75 15.7578 86.0156 14.9766C86.2812 14.1875 86.668 13.5039 87.1758 12.9258C87.6836 12.3477 88.3086 11.8984 89.0508 11.5781C89.793 11.25 90.6445 11.0859 91.6055 11.0859C92.5664 11.0859 93.4219 11.25 94.1719 11.5781C94.9219 11.8984 95.5508 12.3477 96.0586 12.9258C96.5742 13.5039 96.9648 14.1875 97.2305 14.9766C97.4961 15.7578 97.6289 16.6133 97.6289 17.543V17.7891C97.6289 18.7109 97.4961 19.5664 97.2305 20.3555C96.9648 21.1367 96.5742 21.8203 96.0586 22.4062C95.5508 22.9844 94.9258 23.4336 94.1836 23.7539C93.4414 24.0742 92.5898 24.2344 91.6289 24.2344C90.668 24.2344 89.8125 24.0742 89.0625 23.7539C88.3203 23.4336 87.6914 22.9844 87.1758 22.4062C86.668 21.8203 86.2812 21.1367 86.0156 20.3555C85.75 19.5664 85.6172 18.7109 85.6172 17.7891ZM88.9922 17.543V17.7891C88.9922 18.3203 89.0391 18.8164 89.1328 19.2773C89.2266 19.7383 89.375 20.1445 89.5781 20.4961C89.7891 20.8398 90.0625 21.1094 90.3984 21.3047C90.7344 21.5 91.1445 21.5977 91.6289 21.5977C92.0977 21.5977 92.5 21.5 92.8359 21.3047C93.1719 21.1094 93.4414 20.8398 93.6445 20.4961C93.8477 20.1445 93.9961 19.7383 94.0898 19.2773C94.1914 18.8164 94.2422 18.3203 94.2422 17.7891V17.543C94.2422 17.0273 94.1914 16.543 94.0898 16.0898C93.9961 15.6289 93.8438 15.2227 93.6328 14.8711C93.4297 14.5117 93.1602 14.2305 92.8242 14.0273C92.4883 13.8242 92.082 13.7227 91.6055 13.7227C91.1289 13.7227 90.7227 13.8242 90.3867 14.0273C90.0586 14.2305 89.7891 14.5117 89.5781 14.8711C89.375 15.2227 89.2266 15.6289 89.1328 16.0898C89.0391 16.543 88.9922 17.0273 88.9922 17.543ZM99.1641 17.7891V17.543C99.1641 16.6133 99.2969 15.7578 99.5625 14.9766C99.8281 14.1875 100.215 13.5039 100.723 12.9258C101.23 12.3477 101.855 11.8984 102.598 11.5781C103.34 11.25 104.191 11.0859 105.152 11.0859C106.113 11.0859 106.969 11.25 107.719 11.5781C108.469 11.8984 109.098 12.3477 109.605 12.9258C110.121 13.5039 110.512 14.1875 110.777 14.9766C111.043 15.7578 111.176 16.6133 111.176 17.543V17.7891C111.176 18.7109 111.043 19.5664 110.777 20.3555C110.512 21.1367 110.121 21.8203 109.605 22.4062C109.098 22.9844 108.473 23.4336 107.73 23.7539C106.988 24.0742 106.137 24.2344 105.176 24.2344C104.215 24.2344 103.359 24.0742 102.609 23.7539C101.867 23.4336 101.238 22.9844 100.723 22.4062C100.215 21.8203 99.8281 21.1367 99.5625 20.3555C99.2969 19.5664 99.1641 18.7109 99.1641 17.7891ZM102.539 17.543V17.7891C102.539 18.3203 102.586 18.8164 102.68 19.2773C102.773 19.7383 102.922 20.1445 103.125 20.4961C103.336 20.8398 103.609 21.1094 103.945 21.3047C104.281 21.5 104.691 21.5977 105.176 21.5977C105.645 21.5977 106.047 21.5 106.383 21.3047C106.719 21.1094 106.988 20.8398 107.191 20.4961C107.395 20.1445 107.543 19.7383 107.637 19.2773C107.738 18.8164 107.789 18.3203 107.789 17.7891V17.543C107.789 17.0273 107.738 16.543 107.637 16.0898C107.543 15.6289 107.391 15.2227 107.18 14.8711C106.977 14.5117 106.707 14.2305 106.371 14.0273C106.035 13.8242 105.629 13.7227 105.152 13.7227C104.676 13.7227 104.27 13.8242 103.934 14.0273C103.605 14.2305 103.336 14.5117 103.125 14.8711C102.922 15.2227 102.773 15.6289 102.68 16.0898C102.586 16.543 102.539 17.0273 102.539 17.543ZM116.812 6V24H113.426V6H116.812Z" fill="white"/>
</svg>
